<?xml version="1.0" encoding="UTF-8" standalone="no"?>
<svg
   viewBox="0 0 20 20"
   width="40"
   height="40"
   version="1.1"
   id="svg1810"
   sodipodi:docname="icons8-whatsapp.svg"
   inkscape:version="1.1 (c68e22c387, 2021-05-23)"
   xmlns:inkscape="http://www.inkscape.org/namespaces/inkscape"
   xmlns:sodipodi="http://sodipodi.sourceforge.net/DTD/sodipodi-0.dtd"
   xmlns="http://www.w3.org/2000/svg"
   xmlns:svg="http://www.w3.org/2000/svg">
  <defs
     id="defs1814" />
  <sodipodi:namedview
     id="namedview1812"
     pagecolor="#ffffff"
     bordercolor="#666666"
     borderopacity="1.0"
     inkscape:pageshadow="2"
     inkscape:pageopacity="0.0"
     inkscape:pagecheckerboard="0"
     showgrid="false"
     inkscape:zoom="10.166667"
     inkscape:cx="23.95082"
     inkscape:cy="24.04918"
     inkscape:window-width="1366"
     inkscape:window-height="715"
     inkscape:window-x="-8"
     inkscape:window-y="-8"
     inkscape:window-maximized="1"
     inkscape:current-layer="svg1810" />
  <path
     d="M 17.077,2.928 C 15.191,1.041 12.683,0.001 10.011,0 4.505,0 0.024,4.479 0.022,9.985 c -10e-4,1.76 0.459,3.478 1.333,4.992 L 0,20 5.233,18.763 c 1.459,0.796 3.101,1.215 4.773,1.216 h 0.004 c 5.505,0 9.986,-4.48 9.989,-9.985 0.002,-2.669 -1.036,-5.178 -2.922,-7.066 z m -2.179,10.626 c -0.208,0.583 -1.227,1.145 -1.685,1.186 -0.458,0.042 -0.887,0.207 -2.995,-0.624 -2.537,-1 -4.139,-3.601 -4.263,-3.767 C 5.83,10.182 4.936,8.996 4.936,7.768 4.936,6.54 5.581,5.936 5.81,5.687 6.039,5.437 6.309,5.375 6.476,5.375 c 0.166,0 0.333,0 0.478,0.006 C 7.132,5.388 7.329,5.397 7.516,5.812 7.738,6.306 8.223,7.54 8.285,7.665 8.347,7.79 8.389,7.936 8.306,8.102 8.223,8.268 8.181,8.372 8.057,8.518 7.932,8.664 7.795,8.843 7.683,8.955 7.558,9.079 7.428,9.215 7.573,9.464 c 0.146,0.25 0.646,1.067 1.388,1.728 0.954,0.85 1.757,1.113 2.007,1.239 0.25,0.125 0.395,0.104 0.541,-0.063 0.146,-0.166 0.624,-0.728 0.79,-0.978 0.166,-0.25 0.333,-0.208 0.562,-0.125 0.229,0.083 1.456,0.687 1.705,0.812 0.25,0.125 0.416,0.187 0.478,0.291 0.062,0.103 0.062,0.603 -0.146,1.186 z"
     id="path1808"
     style="fill:#255ea8;fill-opacity:1" />
</svg>
